<svg xmlns="http://www.w3.org/2000/svg" height="400" width="2000"><g fill="#fff"><path d="M240.53 198.327L353.316 78.078l6.803 6.06L253.643 210.01z"/><path d="M366.335 57.304a12.04 12.04 0 0 0-4.16 1.281 11.9 11.9 0 0 0-5.882 7.018c-.959 3.051-.674 6.29.802 9.124a11.883 11.883 0 0 0 7.023 5.886c3.041.955 6.294.67 9.119-.802a11.878 11.878 0 0 0 5.887-7.023c1.982-6.29-1.531-13.023-7.825-15.005a11.903 11.903 0 0 0-4.964-.479m3.754 32.52a20.693 20.693 0 0 1-8.61-.834 20.63 20.63 0 0 1-12.17-10.202c-2.565-4.913-3.057-10.533-1.393-15.818a20.6 20.6 0 0 1 10.202-12.173c4.909-2.554 10.532-3.064 15.82-1.392 10.912 3.437 16.996 15.108 13.563 26.022A20.635 20.635 0 0 1 377.3 87.599a20.718 20.718 0 0 1-7.21 2.224M235.804 201.951a13.138 13.138 0 0 0-4.542 1.398 13.006 13.006 0 0 0-6.424 7.664 12.988 12.988 0 0 0 .877 9.962 12.967 12.967 0 0 0 7.669 6.425 13.016 13.016 0 0 0 9.956-.874 12.974 12.974 0 0 0 6.427-7.669c2.165-6.868-1.67-14.22-8.543-16.383a12.983 12.983 0 0 0-5.42-.523m4.099 35.507c-3.121.362-6.314.062-9.4-.91-5.773-1.82-10.493-5.774-13.291-11.138-2.8-5.366-3.336-11.501-1.52-17.274 1.815-5.772 5.77-10.49 11.14-13.29 5.36-2.79 11.499-3.345 17.272-1.521 11.917 3.754 18.558 16.497 14.81 28.413a22.538 22.538 0 0 1-11.139 13.291 22.645 22.645 0 0 1-7.872 2.43M156.86 81.365l72.547 74.924-4.036 4.113-76.294-71.106z"/><path d="M243.261 165.2a7.598 7.598 0 0 0-.683-2.667 7.532 7.532 0 0 0-4.255-3.93 7.529 7.529 0 0 0-5.789.228 7.52 7.52 0 0 0-3.933 4.26 7.542 7.542 0 0 0 .23 5.786 7.515 7.515 0 0 0 4.258 3.933c3.914 1.443 8.275-.571 9.719-4.488a7.544 7.544 0 0 0 .453-3.122m-20.661 1.383c-.123-1.816.14-3.656.788-5.415a13.05 13.05 0 0 1 6.816-7.38 13.041 13.041 0 0 1 10.039-.398 13.04 13.04 0 0 1 7.38 6.816 13.038 13.038 0 0 1 .398 10.038c-2.502 6.792-10.062 10.28-16.854 7.779a13.055 13.055 0 0 1-7.38-6.817 13.098 13.098 0 0 1-1.187-4.623M154.713 78.269a8.303 8.303 0 0 0-.745-2.913 8.225 8.225 0 0 0-4.647-4.291 8.212 8.212 0 0 0-6.32.25 8.204 8.204 0 0 0-4.295 4.65 8.231 8.231 0 0 0 .25 6.317 8.209 8.209 0 0 0 4.65 4.296c4.273 1.575 9.035-.624 10.612-4.901a8.206 8.206 0 0 0 .495-3.408m-22.56 1.51c-.134-1.983.152-3.991.86-5.912a14.253 14.253 0 0 1 7.443-8.06 14.232 14.232 0 0 1 10.96-.434 14.23 14.23 0 0 1 8.059 7.443 14.233 14.233 0 0 1 .435 10.96c-2.734 7.415-10.988 11.224-18.403 8.494a14.254 14.254 0 0 1-8.058-7.443 14.32 14.32 0 0 1-1.297-5.049M233.195 55.45a5.903 5.903 0 0 0-5.18 6.533 5.907 5.907 0 0 0 6.537 5.18c3.23-.374 5.545-3.307 5.17-6.537a5.892 5.892 0 0 0-6.527-5.176m2.233 19.275c-7.405.858-14.12-4.466-14.976-11.866-.858-7.4 4.463-14.115 11.868-14.972 7.394-.857 14.108 4.463 14.966 11.863.856 7.4-4.463 14.119-11.858 14.975"/><path d="M403.568 161.201c1.557 21.874-1.808 44.262-9.458 65.237-7.759 20.937-19.839 40.458-35.47 56.783-15.521 16.447-34.667 29.466-55.522 38.51-20.93 8.95-43.724 13.462-66.499 13.638-22.777-.152-45.565-4.697-66.505-13.619-20.85-9.056-40.01-22.059-55.53-38.512-15.631-16.331-27.714-35.852-35.471-56.793-7.644-20.98-11.01-43.37-9.442-65.244 2.929 43.75 22.148 84.952 52.884 114.064 30.617 29.168 72.153 45.892 114.064 45.665 41.916.244 83.457-16.48 114.081-45.65 30.743-29.114 49.96-70.328 52.868-114.079"/><path d="M361.914 166.98c2.615 32.887-9.75 67.265-33.174 92.12-11.759 12.328-25.95 22.575-41.78 29.4-15.802 6.814-33.027 10.649-50.34 10.74-17.291.05-34.668-3.22-50.705-9.853-15.998-6.718-30.614-16.616-42.792-28.91-12.091-12.388-21.59-27.204-27.924-43.2-6.212-16.051-9.142-33.283-8.615-50.297l.152-4.913 4.594.17c30.36 1.123 60.72 2.492 91.08 4.79-30.363 2.266-60.724 3.603-91.085 4.696l4.745-4.743c1.056 31.607 14.555 62.096 36.857 83.695 22.087 21.822 52.675 34.406 83.693 34.632 31.025.388 62.094-11.583 85.072-33.255 23.214-21.444 37.825-52.247 40.222-85.073"/><path d="M175.417 235.662l9.559 7.77 7.77-9.558-9.56-7.768zm10.598 17.86l-20.69-16.814 16.815-20.693 20.696 16.814zM302.663 211.616l5.684 3.446 5.833-3.199.14-6.653-5.685-3.445-5.83 3.204zm5.552 9.73l-11.062-6.707.28-12.927 11.334-6.231 11.062 6.705-.278 12.934zM273.939 120.719l-20.867-8.122 17.645-14.47zM501.916 296.22V96.617h143.629v36.272H539.617v54.532h100.219v34.844h-100.22v73.957zM711.459 198.281c.853 32.826 18.57 67.953 65.686 67.953 47.115 0 64.817-35.407 65.391-68.248.559-33.699-18.276-71.383-65.391-71.383-47.116 0-66.54 37.983-65.686 71.678m168.187-.873c-.559 51.695-32.27 103.39-102.501 103.39-70.246 0-102.812-50.546-102.812-103.091 0-52.55 33.695-105.374 102.812-105.374 68.806 0 103.076 52.825 102.501 105.075M1044.368 96.042h37.685V296.22h-23.41v.275L953.563 161.433v134.788h-37.7V96.337h30.547l97.957 123.924zM1157.103 259.945h41.13c45.412 0 63.39-33.12 62.535-65.666-.853-31.126-19.125-62.263-62.534-62.263h-41.131zm141.07-65.39c.854 50.546-29.972 101.666-99.94 101.666h-78.532V96.338h78.533c68.523 0 99.086 48.819 99.94 98.216M1504.008 96.614v114.51c0 59.111-36.257 89.375-86.52 89.375-47.973 0-88.805-29.115-88.805-89.375V96.614h37.405v114.51c0 35.977 20.558 55.106 51.695 55.106 31.118 0 48.82-20.837 48.82-55.106V96.614zM1695.572 296.22h-149.633V96.338h149.633v36.551h-112.227v45.967h108.222v35.127h-108.222v45.109h112.227zM1768.34 131.46v63.967h57.404c23.985 0 34.254-15.998 34.254-31.991 0-15.994-10.568-31.976-34.254-31.976zm139.348 164.76h-44.837l-58.235-66.819h-36.276v66.82h-37.7V96.042c31.696 0 63.408.295 95.104.295 47.116.28 71.954 31.696 71.954 66.245 0 27.415-12.566 55.106-50.546 62.814l60.536 68.248z"/></g></svg>